# xmcd
#
# Track frame offsets:
#	150
#	15423
#	31199
#	50016
#	72534
#	88065
#	104680
#	120430
#	137433
#	154191
#	170380
#	185327
#	204133
#
# Disc length: 2924 seconds
#
# Revision: 2
# Processed by: cddbd v1.5.2PL0 Copyright (c) Steve Scherf et al.
# Submitted via: audiograbber 1.81.02
#
DISCID=a60b6a0d
DTITLE=Various Artist - CDX Volume 187 - May 1998
DYEAR=1998
DGENRE=
TTITLE0=Red Steagall - Big Texas Moon
TTITLE1=Doug Stone - Gone Out Of My Mind
TTITLE2=Olivia Newton-John - I Honestly Love You (remix)
TTITLE3=Ronnie McDowell - My Heart Will Go On
TTITLE4=Restless Heart - No End To This Road
TTITLE5=Bellamy Brothers - Tough Love
TTITLE6=Mark Nesler - Used To The Pain
TTITLE7=Michael Peterson - When The Bartender Cries (album version)
TTITLE8=David Kersh - Wonderful Tonight
TTITLE9=Diamond Rio - You're Gone
TTITLE10=Fred McCarty - Breakfast In Texas
TTITLE11=Various Artist - One Heart At A Time
TTITLE12=Bruce Henderson - I can drive
EXTD=
EXTT0=
EXTT1=
EXTT2=
EXTT3=
EXTT4=
EXTT5=
EXTT6=
EXTT7=
EXTT8=
EXTT9=
EXTT10=
EXTT11=
EXTT12=
PLAYORDER=
